<svg width="20" height="22" viewBox="0 0 20 22" fill="none" xmlns="http://www.w3.org/2000/svg">
<path fill-rule="evenodd" clip-rule="evenodd" d="M9.6325 1.77652C11.8656 1.55987 13.7501 3.31667 13.7501 5.51002V6.25001H6.25008V5.70002C6.25008 3.79246 7.80833 1.94678 9.62978 1.77677L9.6325 1.77652ZM4.75008 6.31196V5.70002C4.75008 3.10802 6.81114 0.534136 9.48902 0.283393C12.6153 -0.0191154 15.2501 2.44382 15.2501 5.51002V6.31198C16.8051 6.47742 17.9182 6.97516 18.6265 7.81724C19.5048 8.86141 19.587 10.2337 19.4455 11.5125L19.4443 11.523L19.4442 11.523L18.695 17.5167C18.5845 18.5429 18.3256 19.667 17.4096 20.5037C16.4985 21.3361 15.0869 21.75 13 21.75H7.00003C4.91318 21.75 3.50156 21.3361 2.59042 20.5037C1.67447 19.6669 1.41557 18.5429 1.30502 17.5166L0.555823 11.523L0.554507 11.5125L0.554582 11.5125C0.413078 10.2337 0.495298 8.86141 1.37357 7.81724C2.08188 6.97514 3.19502 6.4774 4.75008 6.31196ZM2.79424 17.337L2.04491 11.3424C1.91738 10.1838 2.05047 9.34278 2.52149 8.78278C2.98608 8.23044 3.95307 7.75001 6.00003 7.75001H14C16.047 7.75001 17.014 8.23044 17.4786 8.78278C17.9496 9.34276 18.0827 10.1837 17.9552 11.3422L17.2058 17.337L17.2057 17.337L17.2043 17.3501C17.1045 18.282 16.8975 18.9399 16.3979 19.3963C15.8916 19.8589 14.9332 20.25 13 20.25H7.00003C5.06688 20.25 4.1085 19.8589 3.60215 19.3963C3.10258 18.9399 2.89561 18.282 2.79576 17.3501L2.79588 17.3501L2.79424 17.337ZM12.4956 11C12.4956 10.4477 12.9433 10 13.4956 10H13.5045C14.0568 10 14.5045 10.4477 14.5045 11C14.5045 11.5523 14.0568 12 13.5045 12H13.4956C12.9433 12 12.4956 11.5523 12.4956 11ZM6.49459 10C5.94231 10 5.49459 10.4477 5.49459 11C5.49459 11.5523 5.94231 12 6.49459 12H6.50357C7.05586 12 7.50357 11.5523 7.50357 11C7.50357 10.4477 7.05586 10 6.50357 10H6.49459Z" fill="#AAAAAA"/>
</svg>
