<svg width="27" height="24" viewBox="0 0 27 24" fill="none" xmlns="http://www.w3.org/2000/svg">
<path d="M26.4736 11.8499C26.4736 18.3944 20.5473 23.6998 13.2368 23.6998C5.92632 23.6998 0 18.3944 0 11.8499C0 5.30537 5.92632 0 13.2368 0C20.5473 0 26.4736 5.30537 26.4736 11.8499Z" fill="#212C62"/>
<path d="M13.5525 15.865C13.3794 15.9197 13.0943 15.9197 12.9212 15.865C11.4448 15.4138 8.14575 13.5315 8.14575 10.3411C8.14575 8.93281 9.41343 7.7934 10.9764 7.7934C11.903 7.7934 12.7226 8.19447 13.2368 8.81431C13.751 8.19447 14.5758 7.7934 15.4973 7.7934C17.0602 7.7934 18.3279 8.93281 18.3279 10.3411C18.3279 13.5315 15.0289 15.4138 13.5525 15.865Z" stroke="white" stroke-linecap="round" stroke-linejoin="round"/>
</svg>
