<svg width="22" height="22" viewBox="0 0 22 22" fill="none" xmlns="http://www.w3.org/2000/svg">
<path fill-rule="evenodd" clip-rule="evenodd" d="M1.75 11C1.75 5.89137 5.89137 1.75 11 1.75C16.1086 1.75 20.25 5.89137 20.25 11C20.25 13.2736 19.4297 15.3556 18.069 16.9662C17.7066 16.287 17.131 15.6773 16.3887 15.1778L16.3871 15.1767C14.8774 14.1666 12.9234 13.6851 11.0075 13.6851C9.09141 13.6851 7.1336 14.1666 5.61504 15.1753L5.61503 15.1753L5.6113 15.1778C4.869 15.6773 4.29336 16.287 3.93105 16.9663C2.57028 15.3556 1.75 13.2736 1.75 11ZM13.6525 19.8641C12.8122 20.1151 11.9219 20.25 11 20.25C10.0811 20.25 9.19343 20.116 8.35556 19.8665C7.13973 19.5038 6.02962 18.8966 5.07839 18.1001C5.24614 17.5359 5.67666 16.9423 6.44685 16.4236C7.6681 15.613 9.31947 15.1851 11.0075 15.1851C12.6963 15.1851 14.3419 15.6134 15.5521 16.4228C16.323 16.9418 16.7538 17.5357 16.9216 18.1001C15.9725 18.8949 14.8652 19.5011 13.6525 19.8641ZM8.95308 21.5554C3.995 20.5995 0.25 16.2371 0.25 11C0.25 5.06294 5.06294 0.25 11 0.25C16.9371 0.25 21.75 5.06294 21.75 11C21.75 16.2288 18.0169 20.5856 13.0706 21.5508C12.4009 21.6816 11.7087 21.7501 11 21.7501C10.2997 21.7501 9.61543 21.6832 8.95308 21.5554ZM11 5.97998C9.59567 5.97998 8.46997 7.1127 8.46997 8.50998C8.46997 9.85876 9.5236 10.9585 10.8586 11.0284C10.9506 11.0209 11.0487 11.0202 11.1439 11.0282C12.4732 10.9572 13.5212 9.86176 13.53 8.50786C13.5288 7.11305 12.3951 5.97998 11 5.97998ZM6.96997 8.50998C6.96997 6.28726 8.76427 4.47998 11 4.47998C13.2242 4.47998 15.03 6.28577 15.03 8.50998V8.51422H15.03C15.0177 10.6826 13.3122 12.4557 11.1455 12.5295C11.1015 12.531 11.0575 12.5287 11.0139 12.5224C11.0182 12.5231 11.0191 12.523 11.0163 12.5228C11.0137 12.5227 11.0094 12.5225 11.0037 12.5225C10.9914 12.5225 10.9801 12.5233 10.973 12.5242C10.9337 12.5291 10.894 12.5309 10.8544 12.5295C8.69158 12.4558 6.96997 10.6854 6.96997 8.50998Z" fill="#AAAAAA"/>
</svg>
