<svg width="19" height="20" viewBox="0 0 19 20" fill="none" xmlns="http://www.w3.org/2000/svg">
<path d="M18.3386 13.2069L16.5387 11.397V6.93728C16.5627 5.2812 15.9866 3.67239 14.9169 2.40789C13.8472 1.14339 12.3562 0.308613 10.7191 0.0576935C9.76893 -0.0674318 8.80304 0.0115112 7.88583 0.289255C6.96863 0.566999 6.1212 1.03716 5.4001 1.66836C4.679 2.29956 4.1008 3.07729 3.70409 3.94965C3.30737 4.82202 3.10127 5.76896 3.09952 6.72729V11.397L1.29962 13.2069C1.07354 13.4368 0.920231 13.7281 0.858852 14.0446C0.797472 14.3612 0.830749 14.6887 0.954523 14.9864C1.0783 15.2841 1.28708 15.5387 1.55476 15.7184C1.82244 15.8981 2.13716 15.9949 2.45955 15.9967H5.81935V16.3367C5.86606 17.3519 6.31327 18.3071 7.063 18.9931C7.81273 19.6791 8.80382 20.0399 9.81911 19.9965C10.8344 20.0399 11.8255 19.6791 12.5752 18.9931C13.3249 18.3071 13.7722 17.3519 13.8189 16.3367V15.9967H17.1787C17.5011 15.9949 17.8158 15.8981 18.0835 15.7184C18.3511 15.5387 18.5599 15.2841 18.6837 14.9864C18.8075 14.6887 18.8407 14.3612 18.7794 14.0446C18.718 13.7281 18.5647 13.4368 18.3386 13.2069ZM11.819 16.3367C11.7635 16.8177 11.5247 17.2587 11.1521 17.5679C10.7796 17.8771 10.3021 18.0307 9.81911 17.9966C9.33616 18.0307 8.85867 17.8771 8.48612 17.5679C8.11357 17.2587 7.87469 16.8177 7.81923 16.3367V15.9967H11.819V16.3367ZM3.3295 13.9969L4.50943 12.8169C4.69659 12.6309 4.84507 12.4096 4.94633 12.1659C5.04758 11.9222 5.0996 11.6609 5.0994 11.397V6.72729C5.09994 6.05273 5.24477 5.3861 5.52416 4.77212C5.80356 4.15814 6.21105 3.61103 6.7193 3.16751C7.22069 2.71322 7.81481 2.3733 8.46053 2.1713C9.10626 1.96929 9.78817 1.91002 10.4591 1.99758C11.6155 2.18534 12.6651 2.78454 13.4148 3.68485C14.1644 4.58517 14.5636 5.72599 14.5388 6.89728V11.397C14.5373 11.6602 14.5878 11.9211 14.6873 12.1648C14.7868 12.4084 14.9334 12.6301 15.1188 12.8169L16.3087 13.9969H3.3295Z" fill="#181725"/>
</svg>
