<svg width="13" height="13" viewBox="0 0 13 13" fill="none" xmlns="http://www.w3.org/2000/svg">
<g clip-path="url(#clip0_26_639)">
<path d="M5.64645 8.88182L2.57178 11.4924V1.05261C2.57178 0.997912 2.59686 0.924483 2.66891 0.856012C2.74147 0.787063 2.83502 0.75 2.92222 0.75H10.1168C10.2896 0.75 10.4283 0.897299 10.4283 1.05261V11.4595L7.40192 8.88201C7.4018 8.88191 7.40169 8.88182 7.40158 8.88172C7.14757 8.66497 6.82505 8.56855 6.52424 8.56855C6.2244 8.56855 5.9017 8.66436 5.64762 8.88083C5.64723 8.88116 5.64684 8.88149 5.64645 8.88182ZM10.4207 11.7697C10.4207 11.7697 10.4209 11.7689 10.4215 11.7676L10.4207 11.7697Z" stroke="#303030" stroke-width="1.5"/>
</g>
<defs>
<clipPath id="clip0_26_639">
<rect width="12.4" height="12.4" fill="white" transform="translate(0.300049)"/>
</clipPath>
</defs>
</svg>
