<svg width="331" height="86" viewBox="0 0 331 86" fill="none" xmlns="http://www.w3.org/2000/svg">
<g filter="url(#filter0_d_24_503)">
<rect x="20" y="15.0017" width="299" height="53" rx="7" fill="#212C62"/>
</g>
<path d="M133.601 49.0017V37.8017H138.449C139.452 37.8017 140.316 37.967 141.041 38.2977C141.767 38.6177 142.327 39.0817 142.721 39.6897C143.116 40.2977 143.313 41.023 143.313 41.8657C143.313 42.6977 143.116 43.4177 142.721 44.0257C142.327 44.6337 141.767 45.103 141.041 45.4337C140.316 45.7537 139.452 45.9137 138.449 45.9137H135.041L136.193 44.7457V49.0017H133.601ZM136.193 45.0337L135.041 43.8017H138.305C139.105 43.8017 139.703 43.631 140.097 43.2897C140.492 42.9484 140.689 42.4737 140.689 41.8657C140.689 41.247 140.492 40.767 140.097 40.4257C139.703 40.0844 139.105 39.9137 138.305 39.9137H135.041L136.193 38.6817V45.0337ZM150.19 49.0017V47.3217L150.03 46.9537V43.9457C150.03 43.4124 149.864 42.9964 149.534 42.6977C149.214 42.399 148.718 42.2497 148.046 42.2497C147.587 42.2497 147.134 42.3244 146.686 42.4737C146.248 42.6124 145.875 42.8044 145.566 43.0497L144.67 41.3057C145.139 40.975 145.704 40.719 146.366 40.5377C147.027 40.3564 147.699 40.2657 148.382 40.2657C149.694 40.2657 150.712 40.575 151.438 41.1937C152.163 41.8124 152.526 42.7777 152.526 44.0897V49.0017H150.19ZM147.566 49.1297C146.894 49.1297 146.318 49.0177 145.838 48.7937C145.358 48.559 144.99 48.2444 144.734 47.8497C144.478 47.455 144.35 47.0124 144.35 46.5217C144.35 46.0097 144.472 45.5617 144.718 45.1777C144.974 44.7937 145.374 44.495 145.918 44.2817C146.462 44.0577 147.171 43.9457 148.046 43.9457H150.334V45.4017H148.318C147.731 45.4017 147.326 45.4977 147.102 45.6897C146.888 45.8817 146.782 46.1217 146.782 46.4097C146.782 46.7297 146.904 46.9857 147.15 47.1777C147.406 47.359 147.752 47.4497 148.19 47.4497C148.606 47.4497 148.979 47.3537 149.31 47.1617C149.64 46.959 149.88 46.6657 150.03 46.2817L150.414 47.4337C150.232 47.9884 149.902 48.4097 149.422 48.6977C148.942 48.9857 148.323 49.1297 147.566 49.1297ZM155.717 52.2337C155.269 52.2337 154.826 52.1644 154.389 52.0257C153.951 51.887 153.594 51.695 153.317 51.4497L154.229 49.6737C154.421 49.8444 154.639 49.9777 154.885 50.0737C155.141 50.1697 155.391 50.2177 155.637 50.2177C155.989 50.2177 156.266 50.1324 156.469 49.9617C156.682 49.8017 156.874 49.5297 157.045 49.1457L157.493 48.0897L157.685 47.8177L160.773 40.3937H163.173L159.285 49.5297C159.007 50.223 158.687 50.767 158.325 51.1617C157.973 51.5564 157.578 51.8337 157.141 51.9937C156.714 52.1537 156.239 52.2337 155.717 52.2337ZM157.189 49.3377L153.349 40.3937H155.925L158.901 47.5937L157.189 49.3377ZM168.898 49.0017V37.8017H171.042L177.65 45.8657H176.61V37.8017H179.17V49.0017H177.042L170.418 40.9377H171.458V49.0017H168.898ZM185.74 49.1297C184.823 49.1297 184.007 48.9377 183.292 48.5537C182.588 48.1697 182.028 47.647 181.612 46.9857C181.207 46.3137 181.004 45.551 181.004 44.6977C181.004 43.8337 181.207 43.071 181.612 42.4097C182.028 41.7377 182.588 41.215 183.292 40.8417C184.007 40.4577 184.823 40.2657 185.74 40.2657C186.647 40.2657 187.458 40.4577 188.172 40.8417C188.887 41.215 189.447 41.7324 189.852 42.3937C190.258 43.055 190.46 43.823 190.46 44.6977C190.46 45.551 190.258 46.3137 189.852 46.9857C189.447 47.647 188.887 48.1697 188.172 48.5537C187.458 48.9377 186.647 49.1297 185.74 49.1297ZM185.74 47.0817C186.156 47.0817 186.53 46.9857 186.86 46.7937C187.191 46.6017 187.452 46.3297 187.644 45.9777C187.836 45.615 187.932 45.1884 187.932 44.6977C187.932 44.1964 187.836 43.7697 187.644 43.4177C187.452 43.0657 187.191 42.7937 186.86 42.6017C186.53 42.4097 186.156 42.3137 185.74 42.3137C185.324 42.3137 184.951 42.4097 184.62 42.6017C184.29 42.7937 184.023 43.0657 183.82 43.4177C183.628 43.7697 183.532 44.1964 183.532 44.6977C183.532 45.1884 183.628 45.615 183.82 45.9777C184.023 46.3297 184.29 46.6017 184.62 46.7937C184.951 46.9857 185.324 47.0817 185.74 47.0817ZM193.862 49.0017L190.758 40.3937H193.11L195.686 47.8017H194.566L197.254 40.3937H199.366L201.974 47.8017H200.854L203.51 40.3937H205.718L202.598 49.0017H200.182L197.894 42.6497H198.63L196.262 49.0017H193.862Z" fill="white"/>
<defs>
<filter id="filter0_d_24_503" x="0" y="0.00170898" width="331" height="85" filterUnits="userSpaceOnUse" color-interpolation-filters="sRGB">
<feFlood flood-opacity="0" result="BackgroundImageFix"/>
<feColorMatrix in="SourceAlpha" type="matrix" values="0 0 0 0 0 0 0 0 0 0 0 0 0 0 0 0 0 0 127 0" result="hardAlpha"/>
<feOffset dx="-4" dy="1"/>
<feGaussianBlur stdDeviation="8"/>
<feColorMatrix type="matrix" values="0 0 0 0 0.0307465 0 0 0 0 0.320833 0 0 0 0 0.276205 0 0 0 0.21 0"/>
<feBlend mode="normal" in2="BackgroundImageFix" result="effect1_dropShadow_24_503"/>
<feBlend mode="normal" in="SourceGraphic" in2="effect1_dropShadow_24_503" result="shape"/>
</filter>
</defs>
</svg>
