<svg width="22" height="28" viewBox="0 0 22 28" fill="none" xmlns="http://www.w3.org/2000/svg">
<path fill-rule="evenodd" clip-rule="evenodd" d="M7.00909 1.23821C3.90715 0.599039 1 2.96822 1 6.13533V21.0401C1 24.2181 3.92592 26.5897 7.03503 25.9318L17.035 23.8159C19.3464 23.3269 21 21.2868 21 18.9242V8.1959C21 5.82342 19.3327 3.77759 17.0091 3.29878L7.00909 1.23821Z" stroke="white"/>
<circle cx="10.5162" cy="14.3312" r="0.38672" fill="white"/>
<circle cx="11.9664" cy="14.3312" r="0.38672" fill="white"/>
<circle cx="11.9664" cy="12.6877" r="0.38672" fill="white"/>
<circle cx="9.06604" cy="12.6877" r="0.38672" fill="white"/>
<circle cx="9.06604" cy="14.4279" r="0.38672" fill="white"/>
<circle cx="10.5162" cy="12.6877" r="0.38672" fill="white"/>
<circle cx="10.5164" cy="11.0441" r="0.29004" fill="white"/>
<circle cx="8.96936" cy="10.9474" r="0.29004" fill="white"/>
<circle cx="7.42261" cy="12.6876" r="0.29004" fill="white"/>
<circle cx="13.4167" cy="12.6876" r="0.29004" fill="white"/>
<circle cx="7.42261" cy="14.4279" r="0.29004" fill="white"/>
<circle cx="13.4167" cy="14.2345" r="0.29004" fill="white"/>
<circle cx="7.42261" cy="16.1681" r="0.29004" fill="white"/>
<circle cx="13.4167" cy="15.9748" r="0.29004" fill="white"/>
<circle cx="11.9664" cy="11.1408" r="0.29004" fill="white"/>
<circle cx="11.9664" cy="15.9748" r="0.29004" fill="white"/>
<circle cx="10.5164" cy="16.0715" r="0.29004" fill="white"/>
<circle cx="8.96936" cy="16.0715" r="0.29004" fill="white"/>
<circle cx="10.5163" cy="9.40053" r="0.19336" fill="white"/>
<circle cx="8.96936" cy="9.30383" r="0.19336" fill="white"/>
<circle cx="7.42249" cy="9.11054" r="0.19336" fill="white"/>
<circle cx="13.4167" cy="9.49722" r="0.19336" fill="white"/>
<circle cx="7.42249" cy="10.9474" r="0.19336" fill="white"/>
<circle cx="13.4167" cy="11.1408" r="0.19336" fill="white"/>
<circle cx="12.0633" cy="9.49722" r="0.19336" fill="white"/>
<circle cx="11.9665" cy="17.6184" r="0.19336" fill="white"/>
<circle cx="10.5163" cy="17.715" r="0.19336" fill="white"/>
<circle cx="8.96936" cy="17.9084" r="0.19336" fill="white"/>
<circle cx="7.42249" cy="17.9084" r="0.19336" fill="white"/>
<circle cx="13.4167" cy="17.5216" r="0.19336" fill="white"/>
<circle cx="5.68231" cy="16.2648" r="0.19336" fill="white"/>
<circle cx="5.68231" cy="14.5245" r="0.19336" fill="white"/>
<circle cx="5.68231" cy="12.6876" r="0.19336" fill="white"/>
<circle cx="14.7703" cy="12.6876" r="0.19336" fill="white"/>
<circle cx="5.68231" cy="10.8507" r="0.19336" fill="white"/>
<circle cx="14.7703" cy="11.2374" r="0.19336" fill="white"/>
<circle cx="10.5163" cy="7.75696" r="0.0966801" fill="white"/>
<circle cx="8.96942" cy="7.56366" r="0.0966801" fill="white"/>
<circle cx="5.68231" cy="9.11044" r="0.0966801" fill="white"/>
<circle cx="3.94202" cy="10.8507" r="0.0966801" fill="white"/>
<circle cx="16.1238" cy="11.2374" r="0.0966801" fill="white"/>
<circle cx="16.1238" cy="12.7842" r="0.0966801" fill="white"/>
<circle cx="3.94202" cy="12.5909" r="0.0966801" fill="white"/>
<circle cx="3.94202" cy="14.5245" r="0.0966801" fill="white"/>
<circle cx="3.94202" cy="16.2648" r="0.0966801" fill="white"/>
<circle cx="14.7702" cy="9.69055" r="0.0966801" fill="white"/>
<circle cx="7.37427" cy="7.51532" r="0.04834" fill="white"/>
<circle cx="13.3683" cy="8.19191" r="0.04834" fill="white"/>
<circle cx="10.5163" cy="19.3585" r="0.0966801" fill="white"/>
<circle cx="8.96942" cy="19.5519" r="0.0966801" fill="white"/>
<circle cx="5.68231" cy="18.005" r="0.0966801" fill="white"/>
<circle cx="7.37427" cy="19.697" r="0.04834" fill="white"/>
<circle cx="13.3683" cy="18.9235" r="0.04834" fill="white"/>
<circle cx="12.0632" cy="19.1652" r="0.0966801" fill="white"/>
<circle cx="12.0632" cy="7.95024" r="0.0966801" fill="white"/>
<path fill-rule="evenodd" clip-rule="evenodd" d="M13.6102 14.6519C13.6102 13.6739 14.4031 12.881 15.3811 12.881V12.881C16.353 12.881 17.1433 13.6642 17.152 14.636L17.1917 19.0478C17.2004 20.012 16.4441 20.81 15.4808 20.853V20.853C14.4614 20.8984 13.6102 20.0843 13.6102 19.0639V14.6519Z" fill="#2A2A2A" stroke="white"/>
<path fill-rule="evenodd" clip-rule="evenodd" d="M13.7067 14.6878C13.7067 13.7433 14.4724 12.9777 15.4169 12.9777V12.9777C16.3514 12.9777 17.1128 13.7278 17.1269 14.6621L17.1946 19.171C17.2086 20.0994 16.4928 20.8759 15.5663 20.9374V20.9374C14.5598 21.0043 13.7067 20.2059 13.7067 19.1972V14.6878Z" stroke="white"/>
<mask id="mask0_1_288" style="mask-type:alpha" maskUnits="userSpaceOnUse" x="13" y="12" width="5" height="10">
<path fill-rule="evenodd" clip-rule="evenodd" d="M13.7067 14.6878C13.7067 13.7433 14.4724 12.9777 15.4169 12.9777V12.9777C16.3514 12.9777 17.1128 13.7278 17.1269 14.6621L17.1946 19.171C17.2086 20.0994 16.4928 20.8759 15.5663 20.9374V20.9374C14.5598 21.0043 13.7067 20.2059 13.7067 19.1972V14.6878Z" fill="white" stroke="white"/>
</mask>
<g mask="url(#mask0_1_288)">
<path fill-rule="evenodd" clip-rule="evenodd" d="M15.1256 12.9777L17.1408 16.82V12.9777H15.1256Z" fill="#807F7F"/>
<path fill-rule="evenodd" clip-rule="evenodd" d="M14.4321 12.881C14.4321 13.1102 14.618 13.296 14.8472 13.296H16.0371C16.2663 13.296 16.4522 13.1102 16.4522 12.881V12.881H14.4321V12.881Z" fill="white"/>
</g>
<path fill-rule="evenodd" clip-rule="evenodd" d="M13.7067 14.6878C13.7067 13.7433 14.4724 12.9777 15.4169 12.9777V12.9777C16.3514 12.9777 17.1128 13.7278 17.1269 14.6621L17.1946 19.171C17.2086 20.0994 16.4928 20.8759 15.5663 20.9374V20.9374C14.5598 21.0043 13.7067 20.2059 13.7067 19.1972V14.6878Z" stroke="white"/>
</svg>
