<svg width="21" height="16" viewBox="0 0 21 16" fill="none" xmlns="http://www.w3.org/2000/svg">
<path d="M2.81909 2.2834H2.71909V2.3834V13.109V13.209H2.81909H18.8191H18.9191V13.109V2.3834V2.2834H18.8191H2.81909ZM2.81909 0.338281H18.8191C19.3207 0.338281 19.8032 0.551919 20.1602 0.934767C20.5173 1.31785 20.7191 1.83883 20.7191 2.3834V13.109C20.7191 13.6536 20.5173 14.1746 20.1602 14.5577C19.8032 14.9405 19.3207 15.1541 18.8191 15.1541H2.81909C2.31753 15.1541 1.83497 14.9405 1.47802 14.5577C1.12085 14.1746 0.919092 13.6536 0.919092 13.109V2.3834C0.919092 1.83883 1.12085 1.31785 1.47802 0.934767C1.83497 0.551919 2.31753 0.338281 2.81909 0.338281ZM11.8191 4.62853H16.8191C17.0554 4.62853 17.2836 4.72916 17.4531 4.91087C17.6227 5.09281 17.7191 5.34098 17.7191 5.60109C17.7191 5.8612 17.6227 6.10937 17.4531 6.29131C17.2836 6.47301 17.0554 6.57365 16.8191 6.57365H11.8191C11.5827 6.57365 11.3545 6.47301 11.1851 6.29131C11.0155 6.10937 10.9191 5.8612 10.9191 5.60109C10.9191 5.34098 11.0155 5.09281 11.1851 4.91087C11.3545 4.72916 11.5827 4.62853 11.8191 4.62853ZM11.8191 7.84621H16.8191C17.0554 7.84621 17.2836 7.94685 17.4531 8.12855C17.6227 8.31049 17.7191 8.55866 17.7191 8.81877C17.7191 9.07889 17.6227 9.32706 17.4531 9.509C17.2836 9.6907 17.0554 9.79134 16.8191 9.79134H11.8191C11.5827 9.79134 11.3545 9.6907 11.1851 9.509C11.0155 9.32706 10.9191 9.07889 10.9191 8.81877C10.9191 8.55866 11.0155 8.31049 11.1851 8.12855C11.3545 7.94685 11.5827 7.84621 11.8191 7.84621Z" fill="#181725" stroke="white" stroke-width="0.2"/>
<g clip-path="url(#clip0_26_642)">
<path d="M7.56932 5.434V5.9967C7.56932 6.30112 7.43174 6.58708 7.19325 6.79002C6.9456 7.00219 6.62456 7.12211 6.28518 7.12211C5.9458 7.12211 5.61559 7.00219 5.37711 6.79002C5.13862 6.58708 5.00104 6.30112 5.00104 5.9967V5.434C5.00104 5.13881 5.13862 4.85285 5.37711 4.64068C5.61559 4.42851 5.9458 4.30859 6.28518 4.30859C6.62456 4.30859 6.9456 4.42851 7.19325 4.64068C7.43174 4.85285 7.56932 5.13881 7.56932 5.434Z" fill="#181725"/>
<path d="M8.53246 8.75478V9.21602C8.53246 9.43741 8.42239 9.6588 8.24812 9.81562C8.06467 9.97244 7.81701 10.0647 7.56936 10.0647H5.00107C4.74424 10.0647 4.49659 9.97244 4.32231 9.81562C4.13886 9.6588 4.03796 9.43741 4.03796 9.21602V8.72711C4.03796 8.41347 4.14803 8.09983 4.34983 7.84154C4.55162 7.58325 4.83597 7.38031 5.16617 7.26039C5.21204 7.25117 5.24873 7.24194 5.29459 7.24194C5.34045 7.24194 5.37714 7.25117 5.423 7.26039H7.06487C7.08322 7.26039 7.09239 7.26039 7.10156 7.26962C7.10156 7.26039 7.11073 7.26039 7.11073 7.26039C7.25749 7.25117 7.34922 7.26039 7.35839 7.26039C7.70694 7.38031 8.00046 7.58325 8.21143 7.85077C8.41322 8.11828 8.53246 8.43192 8.53246 8.75478Z" fill="#181725"/>
</g>
<defs>
<clipPath id="clip0_26_642">
<rect width="6" height="7.68429" fill="white" transform="translate(3.81909 4.30859)"/>
</clipPath>
</defs>
</svg>
