<svg width="209" height="209" viewBox="0 0 209 209" fill="none" xmlns="http://www.w3.org/2000/svg">
<path d="M160.93 29.26C162.084 29.26 163.02 28.3242 163.02 27.17C163.02 26.0157 162.084 25.08 160.93 25.08C159.776 25.08 158.84 26.0157 158.84 27.17C158.84 28.3242 159.776 29.26 160.93 29.26Z" fill="#E68314"/>
<path d="M104.5 181.83C147.208 181.83 181.83 147.208 181.83 104.5C181.83 61.7919 147.208 27.17 104.5 27.17C61.7918 27.17 27.17 61.7919 27.17 104.5C27.17 147.208 61.7918 181.83 104.5 181.83Z" fill="#212C62"/>
<path d="M173.47 39.71C178.087 39.71 181.83 35.9671 181.83 31.35C181.83 26.7329 178.087 22.99 173.47 22.99C168.853 22.99 165.11 26.7329 165.11 31.35C165.11 35.9671 168.853 39.71 173.47 39.71Z" fill="#E68314"/>
<path d="M181.83 54.34C184.139 54.34 186.01 52.4685 186.01 50.16C186.01 47.8514 184.139 45.98 181.83 45.98C179.521 45.98 177.65 47.8514 177.65 50.16C177.65 52.4685 179.521 54.34 181.83 54.34Z" fill="#88AE45"/>
<path d="M169.29 163.02C171.599 163.02 173.47 161.149 173.47 158.84C173.47 156.531 171.599 154.66 169.29 154.66C166.981 154.66 165.11 156.531 165.11 158.84C165.11 161.149 166.981 163.02 169.29 163.02Z" fill="#E68314"/>
<path d="M31.35 140.03C35.9671 140.03 39.71 136.287 39.71 131.67C39.71 127.053 35.9671 123.31 31.35 123.31C26.7329 123.31 22.99 127.053 22.99 131.67C22.99 136.287 26.7329 140.03 31.35 140.03Z" fill="#E68314"/>
<path d="M52.25 186.01C54.5585 186.01 56.43 184.139 56.43 181.83C56.43 179.521 54.5585 177.65 52.25 177.65C49.9414 177.65 48.07 179.521 48.07 181.83C48.07 184.139 49.9414 186.01 52.25 186.01Z" fill="#88AE45"/>
<path d="M38.665 112.86C41.5507 112.86 43.89 110.521 43.89 107.635C43.89 104.749 41.5507 102.41 38.665 102.41C35.7793 102.41 33.44 104.749 33.44 107.635C33.44 110.521 35.7793 112.86 38.665 112.86Z" fill="white"/>
<path d="M166.155 73.15C167.886 73.15 169.29 71.7464 169.29 70.015C169.29 68.2836 167.886 66.88 166.155 66.88C164.424 66.88 163.02 68.2836 163.02 70.015C163.02 71.7464 164.424 73.15 166.155 73.15Z" fill="white"/>
<path d="M167.2 73.15C168.354 73.15 169.29 72.2142 169.29 71.06C169.29 69.9057 168.354 68.97 167.2 68.97C166.046 68.97 165.11 69.9057 165.11 71.06C165.11 72.2142 166.046 73.15 167.2 73.15Z" fill="white"/>
<path d="M154.66 83.6001V125.4C154.66 129.392 152.8 132.945 149.895 135.244C147.763 136.937 145.067 137.94 142.12 137.94H66.88C63.9331 137.94 61.2161 136.937 59.0843 135.202C56.2001 132.924 54.34 129.371 54.34 125.4V83.6001C54.34 79.2947 56.5345 75.47 59.8576 73.2546C59.9621 73.1501 60.0875 73.0665 60.192 73.0038C62.1148 71.7707 64.4138 71.0601 66.88 71.0601H142.12C144.586 71.0601 146.885 71.7707 148.808 73.0038C148.912 73.0665 149.038 73.1501 149.142 73.2546C152.465 75.47 154.66 79.2947 154.66 83.6001Z" fill="white"/>
<path d="M149.895 135.244C147.763 136.937 145.067 137.94 142.12 137.94H66.88C63.9331 137.94 61.2161 136.937 59.0843 135.202L104.5 96.0355L149.895 135.244Z" fill="white"/>
<path d="M149.142 73.2546L104.5 109.976L59.8576 73.2546C59.9621 73.1501 60.0875 73.0665 60.192 73.0038C62.1148 71.7707 64.4138 71.0601 66.88 71.0601H142.12C144.586 71.0601 146.885 71.7707 148.808 73.0038C148.912 73.0665 149.038 73.1501 149.142 73.2546Z" fill="black"/>
<path d="M104.5 110.77C104.324 110.77 104.147 110.711 104.003 110.592L59.6611 74.126C59.3267 73.8522 59.2787 73.3569 59.5545 73.0225C59.8304 72.6881 60.3258 72.64 60.6581 72.9159L104.5 108.973L148.344 72.918C148.676 72.6421 149.17 72.6902 149.448 73.0246C149.723 73.359 149.673 73.8522 149.341 74.1281L104.997 110.592C104.853 110.711 104.676 110.77 104.5 110.77Z" fill="#472B29"/>
<path d="M58.9923 136.124C58.7729 136.124 58.5555 136.032 58.3988 135.852C58.1166 135.524 58.1522 135.029 58.4803 134.746L88.3589 108.855C88.6829 108.569 89.1824 108.603 89.4645 108.931C89.7488 109.257 89.7174 109.752 89.3893 110.036L81.5999 116.839L59.5044 135.934C59.356 136.063 59.1742 136.124 58.9923 136.124Z" fill="#472B29"/>
<path d="M142.12 71.896C148.574 71.896 153.824 77.146 153.824 83.6V125.4C153.824 131.854 148.574 137.104 142.12 137.104H66.88C60.4261 137.104 55.176 131.854 55.176 125.4V83.6C55.176 77.146 60.4261 71.896 66.88 71.896H142.12ZM142.12 68.97H66.88C58.8001 68.97 52.25 75.52 52.25 83.6V125.4C52.25 133.48 58.8001 140.03 66.88 140.03H142.12C150.2 140.03 156.75 133.48 156.75 125.4V83.6C156.75 75.52 150.2 68.97 142.12 68.97Z" fill="#472B29"/>
<path d="M150.008 136.124C149.826 136.124 149.642 136.061 149.494 135.932L119.63 110.039C119.301 109.754 119.268 109.259 119.55 108.933C119.832 108.607 120.33 108.573 120.656 108.853L150.522 134.746C150.85 135.031 150.883 135.526 150.601 135.852C150.444 136.032 150.227 136.124 150.008 136.124Z" fill="#472B29"/>
<path d="M147.345 44.9351C162.326 44.9351 174.515 54.3108 174.515 65.8351C174.515 77.3593 162.326 86.7351 147.345 86.7351C146.367 86.7351 145.328 86.6849 144.168 86.5804L143.746 86.5428L143.416 86.8103C138.423 90.8628 133.637 93.0051 129.58 93.0051C129.003 93.0051 128.535 92.5369 128.535 91.9601C128.535 91.8221 128.568 91.6842 128.623 91.563L128.986 90.8147C130.215 88.4718 130.997 85.9785 131.308 83.4015L131.39 82.7243L130.803 82.3774C124.048 78.3709 120.175 72.3412 120.175 65.8351C120.175 54.3108 132.364 44.9351 147.345 44.9351Z" fill="#E1E0D8"/>
<path d="M147.345 45.98C161.751 45.98 173.47 54.8876 173.47 65.835C173.47 76.7824 161.751 85.69 147.345 85.69C146.398 85.69 145.391 85.6399 144.262 85.5395L143.418 85.4643L142.76 85.9993C137.953 89.8993 133.396 91.9621 129.563 92.0206L129.912 91.3017C131.2 88.848 132.019 86.2313 132.347 83.529L132.512 82.1746L131.34 81.4787C124.907 77.6644 121.22 71.9629 121.22 65.835C121.22 54.8876 132.939 45.98 147.345 45.98ZM147.345 43.89C131.762 43.89 119.13 53.7151 119.13 65.835C119.13 72.9556 123.511 79.2674 130.27 83.2761C130.046 85.1278 129.469 87.6421 128.061 90.3298L127.682 91.1073C127.563 91.3685 127.49 91.6528 127.49 91.96C127.49 93.1137 128.426 94.05 129.58 94.05C132.23 94.05 137.154 93.2391 144.076 87.6212C145.15 87.7173 146.237 87.78 147.345 87.78C162.928 87.78 175.56 77.9549 175.56 65.835C175.56 53.7151 162.928 43.89 147.345 43.89Z" fill="#472B29"/>
<path d="M149.958 57.4751H132.192C131.904 57.4751 131.67 57.241 131.67 56.9526C131.67 56.6641 131.904 56.4301 132.192 56.4301H149.958C150.246 56.4301 150.48 56.6641 150.48 56.9526C150.48 57.241 150.246 57.4751 149.958 57.4751Z" fill="#472B29"/>
<path d="M160.407 57.4751H153.093C152.804 57.4751 152.57 57.241 152.57 56.9526C152.57 56.6641 152.804 56.4301 153.093 56.4301H160.407C160.696 56.4301 160.93 56.6641 160.93 56.9526C160.93 57.241 160.696 57.4751 160.407 57.4751Z" fill="#472B29"/>
<path d="M139.507 62.7H130.103C129.814 62.7 129.58 62.466 129.58 62.1775C129.58 61.8891 129.814 61.655 130.103 61.655H139.507C139.796 61.655 140.03 61.8891 140.03 62.1775C140.03 62.466 139.796 62.7 139.507 62.7Z" fill="#472B29"/>
<path d="M164.587 62.7H142.642C142.354 62.7 142.12 62.466 142.12 62.1775C142.12 61.8891 142.354 61.655 142.642 61.655H164.587C164.876 61.655 165.11 61.8891 165.11 62.1775C165.11 62.466 164.876 62.7 164.587 62.7Z" fill="#472B29"/>
<path d="M156.228 67.925H130.103C129.814 67.925 129.58 67.6909 129.58 67.4025C129.58 67.1141 129.814 66.88 130.103 66.88H156.228C156.516 66.88 156.75 67.1141 156.75 67.4025C156.75 67.6909 156.516 67.925 156.228 67.925Z" fill="#472B29"/>
<path d="M147.868 73.15H132.192C131.904 73.15 131.67 72.9159 131.67 72.6275C131.67 72.3391 131.904 72.105 132.192 72.105H147.868C148.156 72.105 148.39 72.3391 148.39 72.6275C148.39 72.9159 148.156 73.15 147.868 73.15Z" fill="#472B29"/>
<path d="M161.975 90.915C167.746 90.915 172.425 86.2364 172.425 80.465C172.425 74.6936 167.746 70.015 161.975 70.015C156.204 70.015 151.525 74.6936 151.525 80.465C151.525 86.2364 156.204 90.915 161.975 90.915Z" fill="#E68314"/>
<path d="M161.975 71.06C167.16 71.06 171.38 75.2797 171.38 80.465C171.38 85.6503 167.16 89.87 161.975 89.87C156.79 89.87 152.57 85.6503 152.57 80.465C152.57 75.2797 156.79 71.06 161.975 71.06ZM161.975 68.97C155.626 68.97 150.48 74.1156 150.48 80.465C150.48 86.8144 155.626 91.96 161.975 91.96C168.324 91.96 173.47 86.8144 173.47 80.465C173.47 74.1156 168.324 68.97 161.975 68.97Z" fill="#472B29"/>
<path d="M164.659 77.9277L164.264 81.2236C164.247 81.3448 164.234 81.4619 164.228 81.5727C164.222 81.6834 164.218 81.7879 164.218 81.8841C164.218 82.1976 164.347 82.3543 164.606 82.3543C164.97 82.3543 165.3 82.0972 165.599 81.5831C165.892 81.0773 166.038 80.4984 166.038 79.8505C166.038 78.8201 165.678 77.9779 164.957 77.3216C164.243 76.657 163.327 76.3226 162.213 76.3226C161.049 76.3226 160.071 76.7197 159.275 77.516C158.485 78.306 158.088 79.2862 158.088 80.4545C158.088 81.0982 158.23 81.7315 158.514 82.3501C158.802 82.9312 159.206 83.4119 159.726 83.7881C160.42 84.2897 161.292 84.5405 162.337 84.5405C163.317 84.5405 164.341 84.2917 165.413 83.7943L165.507 83.7442L165.833 84.6491L165.758 84.6868C164.665 85.2134 163.528 85.4768 162.343 85.4768C161.032 85.4768 159.937 85.1612 159.053 84.5279C158.405 84.0681 157.897 83.4787 157.534 82.7639C157.174 82.0115 156.995 81.2445 156.995 80.467C156.995 79.0479 157.494 77.8587 158.495 76.8952C159.496 75.9317 160.729 75.451 162.199 75.451C163.551 75.451 164.682 75.8649 165.595 76.6946C166.504 77.5139 166.958 78.5422 166.958 79.7773C166.958 80.7325 166.711 81.5497 166.218 82.231C165.72 82.9207 165.135 83.2676 164.466 83.2676C163.931 83.2676 163.565 83.0148 163.373 82.509C162.859 83.0357 162.284 83.299 161.653 83.299C160.963 83.299 160.387 83.0503 159.927 82.5529C159.475 82.0596 159.25 81.4284 159.25 80.6635C159.25 79.84 159.503 79.1608 160.008 78.6299C160.514 78.0865 161.152 77.8148 161.916 77.8148C162.619 77.8148 163.187 78.0865 163.618 78.6299L163.706 77.934H164.659V77.9277ZM163.377 80.3521C163.377 79.9634 163.246 79.6394 162.982 79.3782C162.711 79.119 162.38 78.9894 161.99 78.9894C161.567 78.9894 161.223 79.1524 160.953 79.4785C160.681 79.8003 160.545 80.2121 160.545 80.7158C160.545 81.1505 160.654 81.5079 160.871 81.79C161.089 82.0701 161.369 82.2101 161.712 82.2101C162.151 82.2101 162.537 82.0241 162.874 81.6521C163.208 81.278 163.377 80.8453 163.377 80.3521Z" fill="white"/>
</svg>
