<svg width="28" height="28" viewBox="0 0 28 28" fill="none" xmlns="http://www.w3.org/2000/svg">
<path d="M25.6667 8.8666H25.2V5.59993C25.1985 4.31193 24.1547 3.26812 22.8667 3.2666H5.13333C3.84533 3.26812 2.80152 4.31193 2.8 5.59993V8.8666H2.33333C1.04533 8.86812 0.00151667 9.91193 0 11.1999V18.6666C0.00151667 19.9546 1.04533 20.9984 2.33333 20.9999H2.8V24.2666C2.8 24.5243 3.00895 24.7333 3.26667 24.7333H4.2C4.39466 24.7334 4.56896 24.6127 4.63727 24.4304L5.9234 20.9999H22.0766L23.3627 24.4304C23.431 24.6127 23.6053 24.7334 23.8 24.7333H24.7333C24.9911 24.7333 25.2 24.5243 25.2 24.2666V20.9999H25.6667C26.9547 20.9984 27.9985 19.9546 28 18.6666V11.1999C27.9985 9.91193 26.9547 8.86812 25.6667 8.8666ZM3.73333 5.59993C3.73333 4.82673 4.36013 4.19993 5.13333 4.19993H22.8667C23.6399 4.19993 24.2667 4.82673 24.2667 5.59993V8.8666H22.8667C22.6089 8.8666 22.4 9.07555 22.4 9.33327V14.4666H5.6V9.33327C5.6 9.07555 5.39105 8.8666 5.13333 8.8666H3.73333V5.59993ZM0.933333 11.1999C0.933333 10.4267 1.56012 9.79993 2.33333 9.79993H4.66667V14.4666H0.933333V11.1999ZM3.8766 23.7999H3.73333V20.9999H4.9266L3.8766 23.7999ZM24.2667 23.7999H24.1234L23.0734 20.9999H24.2667V23.7999ZM27.0667 18.6666C27.0667 19.4398 26.4399 20.0666 25.6667 20.0666H2.33333C1.56012 20.0666 0.933333 19.4398 0.933333 18.6666V15.3999H27.0667V18.6666ZM27.0667 14.4666H23.3333V9.79993H25.6667C26.4399 9.79993 27.0667 10.4267 27.0667 11.1999V14.4666Z" fill="#909090"/>
</svg>
