<svg width="28" height="28" viewBox="0 0 28 28" fill="none" xmlns="http://www.w3.org/2000/svg">
<g clip-path="url(#clip0_26_631)">
<path d="M19.8312 14.0549H19.7874L20.2506 4.1568C20.2613 3.9305 20.0864 3.73849 19.8601 3.72794C19.6339 3.71705 19.4418 3.89222 19.4313 4.11846L18.9662 14.0549H9.03364L8.6453 5.76007C8.50415 2.74455 8.51225 2.93973 8.51225 2.86891C8.51225 1.73934 9.43225 0.820312 10.5631 0.820312H17.4366C18.5675 0.820312 19.4875 1.73934 19.4875 2.86891C19.4875 2.93601 19.49 2.86355 19.4313 4.11846C19.4207 4.3447 19.5955 4.53671 19.8218 4.54732C20.048 4.55831 20.24 4.38309 20.2506 4.1568C20.3092 2.90544 20.3078 2.96144 20.3078 2.86891C20.3078 1.28696 19.0198 0 17.4366 0H10.5631C8.97999 0 7.69199 1.28696 7.69199 2.86891C7.69199 2.96603 7.68346 2.75466 7.82597 5.79841L8.21251 14.0549H8.1687C7.39974 14.0549 6.77417 14.6805 6.77417 15.4494V17.4832C6.77417 18.2521 7.39974 18.8777 8.1687 18.8777H8.45094V23.3894C8.45094 23.6159 8.63458 23.7996 8.8611 23.7996C9.08761 23.7996 9.27126 23.6159 9.27126 23.3894V18.8777H10.5025L9.93429 26.8713C9.92198 27.0442 9.77657 27.1797 9.60315 27.1797C9.42011 27.1797 9.27126 27.0308 9.27126 26.8478V23.3894C9.27126 23.1629 9.08761 22.9792 8.8611 22.9792C8.63458 22.9792 8.45094 23.1629 8.45094 23.3894V26.8478C8.45094 27.4831 8.96785 28 9.60315 28C10.205 28 10.7098 27.5297 10.7525 26.9294L11.3249 18.8777H16.6751L17.2475 26.9295C17.2901 27.5297 17.795 28 18.3967 28C19.0321 28 19.5489 27.4831 19.5489 26.8478V18.8777H19.8312C20.6001 18.8777 21.2257 18.2521 21.2257 17.4832V15.4494C21.2257 14.6805 20.6001 14.0549 19.8312 14.0549ZM18.7286 26.8478C18.7286 27.0308 18.5797 27.1797 18.3967 27.1797C18.2234 27.1797 18.0779 27.0442 18.0656 26.8713L17.4973 18.8777H18.7286V26.8478ZM20.4054 17.4832C20.4054 17.7998 20.1478 18.0574 19.8312 18.0574C18.5627 18.0574 9.42586 18.0574 8.16859 18.0574C7.85195 18.0574 7.59437 17.7998 7.59437 17.4832V15.4494C7.59437 15.1328 7.85195 14.8752 8.16859 14.8752H19.8312C20.1478 14.8752 20.4054 15.1328 20.4054 15.4494V17.4832Z" fill="#909090"/>
</g>
<defs>
<clipPath id="clip0_26_631">
<rect width="28" height="28" fill="white"/>
</clipPath>
</defs>
</svg>
