<svg width="20" height="20" viewBox="0 0 20 20" fill="none" xmlns="http://www.w3.org/2000/svg">
<g clip-path="url(#clip0_1_978)">
<path d="M19.9824 7.72479C19.9401 7.59519 19.8281 7.50068 19.6931 7.48099L13.217 6.53983L10.3209 0.671608C10.2607 0.549174 10.1361 0.471848 10.0001 0.471848C9.86406 0.471848 9.73912 0.549174 9.67934 0.671608L6.78282 6.54019L0.306722 7.48135C0.171758 7.50104 0.0600646 7.59519 0.0174634 7.72515C-0.0244218 7.85438 0.0103036 7.99686 0.108036 8.09173L4.79452 12.6597L3.68797 19.11C3.66505 19.2443 3.72019 19.38 3.83009 19.4602C3.94071 19.5411 4.08713 19.5514 4.20706 19.4874L10.0001 16.4423L15.7924 19.4874C15.8447 19.5149 15.9023 19.5285 15.9593 19.5285C16.0334 19.5285 16.1071 19.5056 16.1698 19.4602C16.28 19.38 16.3351 19.2443 16.3119 19.11L15.2057 12.6601L19.8922 8.09173C19.9895 7.99615 20.0246 7.85402 19.9824 7.72479Z" fill="white"/>
</g>
<defs>
<clipPath id="clip0_1_978">
<rect width="20" height="20" fill="white"/>
</clipPath>
</defs>
</svg>
