<svg width="125" height="146" viewBox="0 0 125 146" fill="none" xmlns="http://www.w3.org/2000/svg">
<g opacity="0.3">
<path d="M91 7.28003C66.8423 7.28003 47.32 26.8024 47.32 50.96V65.52H32.76C26.7739 65.52 21.84 70.4539 21.84 76.44V163.8C21.84 169.786 26.7739 174.72 32.76 174.72H149.24C155.226 174.72 160.16 169.786 160.16 163.8V76.44C160.16 70.4539 155.226 65.52 149.24 65.52H134.68V50.96C134.68 26.8024 115.158 7.28003 91 7.28003ZM91 14.56C111.262 14.56 127.4 30.6983 127.4 50.96V65.52H54.6V50.96C54.6 30.6983 70.7383 14.56 91 14.56ZM32.76 72.8H149.24C151.259 72.8 152.88 74.421 152.88 76.44V163.8C152.88 165.819 151.259 167.44 149.24 167.44H32.76C30.7409 167.44 29.12 165.819 29.12 163.8V76.44C29.12 74.421 30.7409 72.8 32.76 72.8ZM91 91C81.0042 91 72.8 99.2042 72.8 109.2H80.08C80.08 103.171 84.9712 98.28 91 98.28C97.0287 98.28 101.92 103.171 101.92 109.2C101.92 112.129 101.237 113.736 100.327 115.001C99.4175 116.267 98.1662 117.191 96.5737 118.073C94.9812 118.954 93.1612 119.736 91.3412 120.916C89.5212 122.096 87.36 124.428 87.36 127.4V134.68H94.64V127.4C94.64 127.286 94.2987 127.542 95.2087 126.945C96.1187 126.348 97.9387 125.566 99.9862 124.443C102.034 123.319 104.422 121.84 106.242 119.324C108.062 116.807 109.2 113.366 109.2 109.2C109.2 99.2042 100.996 91 91 91ZM87.36 138.32V145.6H94.64V138.32H87.36Z" fill="#E68314"/>
</g>
</svg>
