<svg width="24" height="25" viewBox="0 0 24 25" fill="none" xmlns="http://www.w3.org/2000/svg">
<path fill-rule="evenodd" clip-rule="evenodd" d="M9 23.45H15C20.43 23.45 22.75 21.13 22.75 15.7V9.69995C22.75 4.26995 20.43 1.94995 15 1.94995H9C3.57 1.94995 1.25 4.26995 1.25 9.69995V15.7C1.25 21.13 3.57 23.45 9 23.45ZM2.75 9.69995C2.75 5.08995 4.39 3.44995 9 3.44995H15C19.61 3.44995 21.25 5.08995 21.25 9.69995V15.7C21.25 20.31 19.61 21.95 15 21.95H9C4.39 21.95 2.75 20.31 2.75 15.7V9.69995ZM8 13.45H16C16.41 13.45 16.75 13.11 16.75 12.7C16.75 12.29 16.41 11.95 16 11.95H8C7.59 11.95 7.25 12.29 7.25 12.7C7.25 13.11 7.59 13.45 8 13.45Z" fill="#212C62"/>
</svg>
