<svg width="22" height="23" viewBox="0 0 22 23" fill="none" xmlns="http://www.w3.org/2000/svg">
<path fill-rule="evenodd" clip-rule="evenodd" d="M0.25 14.7C0.25 20.13 2.57 22.45 8 22.45H14C19.43 22.45 21.75 20.13 21.75 14.7V8.69995C21.75 3.26995 19.43 0.949951 14 0.949951H8C2.57 0.949951 0.25 3.26995 0.25 8.69995V14.7ZM1.75 8.69995C1.75 4.08995 3.39 2.44995 8 2.44995H14C18.61 2.44995 20.25 4.08995 20.25 8.69995V14.7C20.25 19.31 18.61 20.95 14 20.95H8C3.39 20.95 1.75 19.31 1.75 14.7V8.69995ZM11 16.45C10.59 16.45 10.25 16.11 10.25 15.7V12.45H7C6.59 12.45 6.25 12.11 6.25 11.7C6.25 11.29 6.59 10.95 7 10.95H10.25V7.69995C10.25 7.28995 10.59 6.94995 11 6.94995C11.41 6.94995 11.75 7.28995 11.75 7.69995V10.95H15C15.41 10.95 15.75 11.29 15.75 11.7C15.75 12.11 15.41 12.45 15 12.45H11.75V15.7C11.75 16.11 11.41 16.45 11 16.45Z" fill="#212C62"/>
</svg>
